<?xml version="1.0" encoding="UTF-8"?>
<svg id="Layer_2" data-name="Layer 2" xmlns="http://www.w3.org/2000/svg" width="432.86" height="221.25" xmlns:xlink="http://www.w3.org/1999/xlink" viewBox="0 0 432.86 221.25">
  <defs>
    <style>
      .cls-1 {
        fill: url(#linear-gradient);
      }

      .cls-1, .cls-2, .cls-3, .cls-4, .cls-5, .cls-6 {
        stroke-width: 0px;
      }

      .cls-2 {
        fill: url(#linear-gradient-6);
      }

      .cls-3 {
        fill: url(#linear-gradient-5);
      }

      .cls-4 {
        fill: url(#linear-gradient-2);
      }

      .cls-5 {
        fill: url(#linear-gradient-3);
      }

      .cls-6 {
        fill: url(#linear-gradient-4);
      }
    </style>
    <linearGradient id="linear-gradient" x1="70.97" y1="111.12" x2="432.86" y2="111.12" gradientUnits="userSpaceOnUse">
      <stop offset="0" stop-color="#b90000"/>
      <stop offset="1" stop-color="#ff4a4a"/>
    </linearGradient>
    <linearGradient id="linear-gradient-2" x1="0" y1="110.62" x2="131.47" y2="110.62" xlink:href="#linear-gradient"/>
    <linearGradient id="linear-gradient-3" x1="191.27" y1="132.19" x2="207.85" y2="132.19" xlink:href="#linear-gradient"/>
    <linearGradient id="linear-gradient-4" x1="214.25" y1="132.19" x2="230.84" y2="132.19" xlink:href="#linear-gradient"/>
    <linearGradient id="linear-gradient-5" x1="191.27" y1="155.96" x2="207.85" y2="155.96" xlink:href="#linear-gradient"/>
    <linearGradient id="linear-gradient-6" x1="214.25" y1="155.96" x2="230.84" y2="155.96" xlink:href="#linear-gradient"/>
  </defs>
  <g id="Layer_1-2" data-name="Layer 1">
    <g>
      <path class="cls-1" d="M126.89,137.6c-5.54,8.13-13.04,6.55-20.1,6.56-11.77.03-23.54,0-35.82-1.04,1.18-.95,2.33-1.94,3.55-2.84,40.6-29.81,81.21-59.6,121.82-89.4,3.75-2.75,7.58-5.41,11.18-8.35,2.52-2.06,4.45-1.82,6.99.07,33.47,24.91,67,49.73,100.53,74.55,11.47,8.48,22.99,16.88,35.4,25.98-2.56.16-4.11.33-5.66.33-11.31.02-22.63-.16-33.94.09-5.18.12-9.86-.39-13.75-4.2-1.01-.99-2.44-1.54-4.52-2.81-.28,2.47-.64,4.15-.65,5.84-.06,14.63.13,29.26-.11,43.88-.35,21.16,12.01,29.7,32.66,27.67,15.46-1.52,29.95-6.22,42.72-15.27,17.55-12.44,26.52-30.21,30.69-50.76,4.45-21.96,4.55-43.89-.84-65.74-11.06-44.76-46.91-70.02-92.23-68.35-8.72.32-12.75,4.96-12.84,14.42-.14,14.96-.06,29.92-.07,44.88,0,1.75,0,3.49,0,6.44-9.26-6.76-17.64-12.65-25.7-18.96-1.35-1.06-1.74-3.85-1.85-5.89-.43-8.3-.64-16.6-.8-24.91-.19-9.96-3.44-18.52-11.62-25.42,1.14-.43,1.81-.86,2.51-.91,28.55-2.21,57.09-4.35,85.58.67,27.01,4.76,50.71,15.88,69.07,36.73,11.83,13.44,18.89,29.38,21.6,46.97,5.14,33.34,1.7,65.35-17.32,94.27-12.25,18.63-29.73,30.84-50.78,37.42-6.59,2.06-14.16,1.26-21.29,1.3-26.61.15-53.22.11-79.82.13-.8,0-1.6-.21-2.32-.3-.19-.49-.49-.88-.39-1.06,5.25-9.81,4.92-20.54,5-31.15.17-22.77.09-45.55.29-68.32.03-3.86-1.13-6.45-4.3-8.78-15.14-11.11-30.17-22.38-45.1-33.77-2.79-2.13-4.63-2.01-7.35.07-17.69,13.53-35.48,26.94-53.34,40.25-2.67,1.99-2.96,3.68-1.67,6.66,11.35,26.23,22.37,52.6,33.92,78.74,2.7,6.11,7.05,11.49,11.01,17.79-3.87,0-7.9,0-11.94,0-6.82,0-13.65-.12-20.46.08-2.94.09-4.36-.87-5.48-3.69-9.74-24.56-19.66-49.04-29.55-73.54-.67-1.66-1.5-3.25-2.93-6.34Z"/>
      <path class="cls-4" d="M98.94,0c3.39,7.88,6.27,14.54,9.12,21.2,7.51,17.56,14.9,35.17,22.6,52.65,1.52,3.45.96,5.34-2,7.39-5.97,4.13-11.73,8.56-18.18,13.3-4.71-11.63-9.16-22.62-14.09-34.79-1.29,2.16-2.13,3.24-2.63,4.46-17.22,42.31-34.4,84.64-51.6,126.96-3.69,9.08-7.37,18.17-11.25,27.17-.53,1.22-2.2,2.73-3.38,2.76-9.27.23-18.54.13-27.52.13,19.13-27.47,28.35-59.46,41.97-89.33,15.37-33.7,29.45-67.98,44.1-102.01,4.11-9.56,8.23-19.11,12.87-29.89Z"/>
      <g>
        <rect class="cls-5" x="191.27" y="123.9" width="16.59" height="16.59"/>
        <rect class="cls-6" x="214.25" y="123.9" width="16.59" height="16.59"/>
        <rect class="cls-3" x="191.27" y="147.66" width="16.59" height="16.59"/>
        <rect class="cls-2" x="214.25" y="147.66" width="16.59" height="16.59"/>
      </g>
    </g>
  </g>
</svg>